<svg xmlns="http://www.w3.org/2000/svg" viewBox="0 0 150 180">
  <defs>
    <linearGradient id="g" x1="0" y1="0" x2="150" y2="180" gradientUnits="userSpaceOnUse">
      <stop offset="0%" stop-color="#ff6969"/>
      <stop offset="100%" stop-color="#ffc56e"/>
    </linearGradient>
  </defs>

  <path fill="url(#g)" d="M47.2016 46.0987C47.2016 30.565 59.7943 17.9724 75.328 17.9724C90.8618 17.9724 103.454 30.565 103.454 46.0987C103.454 49.992 87.386 92.2238 75.7455 92.2238C65.4237 92.2238 47.2016 51.3106 47.2016 46.0987Z"/>
  <path fill="url(#g)" d="M103.452 122.347C103.452 137.881 90.8592 150.473 75.3255 150.473C59.7917 150.473 47.1991 137.881 47.1991 122.347C47.1991 118.454 63.2675 76.222 74.9079 76.222C85.2298 76.222 103.452 117.135 103.452 122.347Z"/>
  <path fill="url(#g)" d="M37.2004 112.348C21.6666 112.348 9.07404 99.7557 9.07404 84.2219C9.07404 68.6882 21.6666 56.0956 37.2004 56.0956C41.0937 56.0956 83.3255 72.164 83.3255 83.8044C83.3255 94.1263 42.4123 112.348 37.2004 112.348Z"/>
  <path fill="url(#g)" d="M113.451 112.348C128.984 112.348 141.577 99.7557 141.577 84.2219C141.577 68.6882 128.984 56.0956 113.451 56.0956C109.557 56.0956 67.3255 72.164 67.3255 83.8044C67.3255 94.1263 108.239 112.348 113.451 112.348Z"/>
</svg>
